<?xml version="1.0" encoding="UTF-8" standalone="no"?>
<!-- Created with Inkscape (http://www.inkscape.org/) -->

<svg
   xmlns:dc="http://purl.org/dc/elements/1.1/"
   xmlns:cc="http://creativecommons.org/ns#"
   xmlns:rdf="http://www.w3.org/1999/02/22-rdf-syntax-ns#"
   xmlns:svg="http://www.w3.org/2000/svg"
   xmlns="http://www.w3.org/2000/svg"
   xmlns:sodipodi="http://sodipodi.sourceforge.net/DTD/sodipodi-0.dtd"
   xmlns:inkscape="http://www.inkscape.org/namespaces/inkscape"
   width="300"
   height="75"
   id="svg2"
   version="1.1"
   inkscape:version="0.48.2 r9819">
  <defs
     id="defs4" />
  <sodipodi:namedview
     id="base"
     pagecolor="#ffffff"
     bordercolor="#666666"
     borderopacity="1.0"
     inkscape:pageopacity="0.0"
     inkscape:pageshadow="2"
     inkscape:zoom="1.979899"
     inkscape:cx="140.6821"
     inkscape:cy="38.170679"
     inkscape:document-units="px"
     inkscape:current-layer="layer3"
     showgrid="false"
     fit-margin-top="0"
     fit-margin-left="0"
     fit-margin-right="0"
     fit-margin-bottom="0"
     inkscape:window-width="1280"
     inkscape:window-height="752"
     inkscape:window-x="0"
     inkscape:window-y="0"
     inkscape:window-maximized="1" />
  <metadata
     id="metadata7">
    <rdf:RDF>
      <cc:Work
         rdf:about="">
        <dc:format>image/svg+xml</dc:format>
        <dc:type
           rdf:resource="http://purl.org/dc/dcmitype/StillImage" />
        <dc:title></dc:title>
      </cc:Work>
    </rdf:RDF>
  </metadata>
  <g
     inkscape:groupmode="layer"
     id="layer3"
     inkscape:label="Black"
     transform="translate(-312.70001,-515.86218)">
    <rect
       style="fill:#0c0c0d;fill-opacity:1;stroke:none;display:inline"
       id="rect3887"
       width="300"
       height="75"
       x="312.70001"
       y="515.86218" />
  </g>
  <g
     inkscape:groupmode="layer"
     id="layer2"
     inkscape:label="White"
     style="display:inline"
     transform="translate(-312.70001,-515.86218)">
    <path
       style="fill:#ffffff;fill-opacity:1;display:inline"
       d="m 347.20065,572.14646 c 8.15852,-1.10479 17.77204,-1.39332 26.7137,-0.80173 2.67245,0.17683 6.46617,0.55553 8.31228,0.82972 0.82481,0.1225 0.78751,0.13273 0.86704,-0.23806 0.22816,-1.06392 0.88496,-3.33226 1.42173,-4.91013 0.97439,-2.8643 2.45433,-5.8303 3.85754,-7.73106 0.0615,-0.0834 0.1011,-0.16138 0.0881,-0.1735 -0.013,-0.0121 -0.45944,-0.17599 -0.99195,-0.36415 -0.5325,-0.18817 -1.13624,-0.40266 -1.34163,-0.47657 -1.4007,-0.50424 -1.3693,-0.49489 -1.3693,-0.4071 0,0.0364 0.0539,0.36825 0.11967,0.73678 0.16079,0.90003 0.17186,2.04903 0.0254,2.63409 -0.0571,0.22822 -0.1232,0.43619 -0.14681,0.46221 -0.0779,0.0856 -0.54912,-0.58923 -0.88277,-1.26442 -0.29959,-0.6062 -0.71992,-1.73732 -0.71992,-1.93723 0,-0.0454 -0.0187,-0.0817 -0.0415,-0.0814 -0.0419,0 -1.83441,5.92867 -1.80459,5.96757 0.008,0.0121 0.23484,-0.12126 0.50228,-0.29489 0.60803,-0.39486 1.27206,-0.71885 1.7012,-0.83005 0.32636,-0.0845 0.63845,-0.11236 0.63845,-0.0567 0,0.0752 -0.52083,1.0468 -0.78836,1.47064 -1.40589,2.22752 -3.22682,3.27411 -4.7995,2.75859 -0.95983,-0.3147 -1.67419,-1.14042 -1.83712,-2.12367 -0.0835,-0.50384 0.005,-0.99779 0.27184,-1.5241 0.46768,-0.92117 1.33637,-1.17351 2.08374,-0.60537 0.2476,0.18827 0.64704,0.73147 0.72643,0.9879 0.0413,0.13333 0.0432,0.13238 0.1446,-0.065 0.19776,-0.38551 0.38715,-1.06976 0.41926,-1.51486 0.0265,-0.36929 0.011,-0.52045 -0.0901,-0.85239 -0.10433,-0.34335 -0.16939,-0.4503 -0.43687,-0.71779 -0.37384,-0.37384 -0.77766,-0.54806 -1.37692,-0.59399 -0.42052,-0.032 -1.0422,0.0804 -1.36953,0.2483 -0.12695,0.0651 -0.0779,-0.008 0.21411,-0.32452 0.90799,-0.98055 1.57182,-2.09911 1.80036,-3.03362 0.19861,-0.81212 0.14131,-1.81473 -0.15198,-2.65893 -0.19063,-0.54877 -0.70017,-1.46585 -1.1807,-2.12505 -0.10369,-0.14229 -1.45025,1.17146 -1.91095,1.86441 -0.94553,1.42229 -1.04577,3.06353 -0.31705,5.19103 0.13756,0.40159 0.27758,0.78151 0.31117,0.84425 0.0447,0.0835 0.003,0.0655 -0.15484,-0.0668 -0.66212,-0.55504 -1.14893,-0.75691 -1.82036,-0.75481 -0.74242,0 -1.26078,0.33379 -1.58738,1.01512 -0.15724,0.32808 -0.1783,0.43158 -0.19997,0.98364 -0.0246,0.62715 0.0975,1.45771 0.21435,1.45771 0.0282,0 0.0515,-0.0199 0.0515,-0.0444 0,-0.11906 0.58372,-0.68028 0.84078,-0.80836 1.33865,-0.66705 2.43408,1.17474 1.64814,2.77121 -0.44358,0.90102 -1.49106,1.6217 -2.85921,1.96714 -0.41528,0.10475 -0.63846,0.12321 -1.51078,0.12415 -1.14497,0 -1.65277,-0.0768 -2.37899,-0.36576 -1.67002,-0.66455 -2.4159,-1.95409 -2.57983,-4.46016 l -0.0372,-0.56707 0.24566,0 c 1.05321,0 2.51583,0.97128 3.68468,2.44692 l 0.3387,0.42761 0.0335,-0.2893 c 0.0383,-0.33108 0.5269,-5.94902 0.52723,-6.0624 1e-4,-0.0411 -0.19273,0.10625 -0.42857,0.3272 -1.05898,0.99238 -2.17911,1.49771 -3.66702,1.6544 -0.66855,0.0704 -0.66218,0.0706 -0.66218,-0.0161 0,-0.13688 0.48284,-1.05921 0.82897,-1.58353 0.44143,-0.6686 1.13984,-1.59818 1.74005,-2.31602 l 0.47158,-0.56394 -3.99193,0 -3.99193,0 0.11113,0.12448 c 0.65244,0.73069 1.66249,2.04776 2.15282,2.80726 0.30892,0.47851 0.79821,1.41977 0.79821,1.53556 0,0.0647 -0.0768,0.0721 -0.42877,0.0411 -1.68517,-0.14876 -2.80742,-0.64365 -4.00123,-1.76448 -0.20127,-0.18894 -0.32798,-0.27475 -0.32798,-0.22197 0,0.13532 0.49489,5.83245 0.52974,6.09824 l 0.0312,0.23829 0.28066,-0.37661 c 0.3843,-0.51562 1.32402,-1.42882 1.78951,-1.73903 0.76034,-0.50668 1.42405,-0.76759 1.95272,-0.76759 l 0.24524,0 -0.0379,0.56709 c -0.1748,2.6155 -0.99242,3.93945 -2.80761,4.5463 -1.06705,0.35668 -2.67695,0.40804 -3.78168,0.12052 -1.99892,-0.5201 -3.20883,-1.90218 -2.97603,-3.39952 0.25574,-1.64487 1.71946,-1.95292 2.68585,-0.56526 0.0516,0.0741 0.10759,0.12139 0.12425,0.10465 0.10017,-0.10017 0.20082,-0.90042 0.17979,-1.42917 -0.038,-0.95597 -0.35708,-1.53588 -1.02552,-1.86413 -0.27549,-0.13527 -0.3802,-0.15519 -0.81408,-0.15502 -0.45683,2.2e-4 -0.53225,0.0166 -0.91351,0.19852 -0.22857,0.10893 -0.55727,0.31363 -0.73046,0.4547 l -0.31488,0.25644 0.10572,-0.24674 c 0.20376,-0.47536 0.53949,-1.60859 0.63586,-2.14631 0.1417,-0.79054 0.096,-1.83154 -0.10856,-2.4726 -0.25691,-0.8052 -0.64979,-1.4327 -1.37512,-2.19625 -0.47596,-0.50108 -1.07992,-0.99016 -1.14023,-0.92339 -0.15127,0.16764 -0.65488,0.98359 -0.85911,1.39194 -0.40386,0.8076 -0.53768,1.31182 -0.56868,2.14265 -0.0227,0.60774 -0.008,0.79635 0.092,1.21677 0.22659,0.94833 0.84633,2.01727 1.72914,2.98253 0.21991,0.24044 0.36361,0.42241 0.31932,0.40438 -0.6701,-0.27264 -1.56825,-0.31619 -2.11102,-0.10234 -1.14662,0.45173 -1.4996,1.66866 -0.92066,3.174 0.0904,0.23531 0.18608,0.44112 0.21246,0.45744 0.0264,0.0161 0.12847,-0.12138 0.22689,-0.30611 0.34943,-0.6556 0.82343,-1.00367 1.37316,-1.00835 0.55558,-0.006 1.04777,0.35711 1.34261,0.98721 0.80877,1.72832 -0.51169,3.69136 -2.47781,3.68368 -1.60018,-0.006 -3.2626,-1.44234 -4.52594,-3.90963 -0.10905,-0.21299 -0.19842,-0.40592 -0.19858,-0.42877 -4.7e-4,-0.0668 0.26255,-0.0481 0.62799,0.0454 0.43859,0.11174 1.10238,0.43258 1.69542,0.81947 0.25864,0.16869 0.4781,0.28421 0.48767,0.25665 0.0161,-0.0465 -1.68451,-5.78332 -1.74375,-5.88225 -0.0146,-0.0243 -0.13714,0.28669 -0.27216,0.69158 -0.13503,0.40482 -0.36694,0.985 -0.51539,1.28929 -0.27351,0.56073 -0.75976,1.27239 -0.86096,1.26004 -0.0305,-0.006 -0.10276,-0.17671 -0.16065,-0.38445 -0.15812,-0.56692 -0.15037,-1.81113 0.017,-2.74652 0.0698,-0.38999 0.11516,-0.72084 0.10089,-0.73517 -0.0144,-0.0144 -0.27202,0.0599 -0.57262,0.16493 -1.42566,0.49821 -3.09244,1.09588 -3.11264,1.11608 -0.0123,0.0121 0.20144,0.35293 0.47509,0.75679 1.42094,2.09706 2.53303,4.41431 3.53861,7.37333 0.39873,1.17335 0.95876,3.09109 1.24,4.24624 0.14507,0.59584 0.20502,0.76071 0.27665,0.76071 0.0503,0 0.45051,-0.0487 0.88936,-0.10809 z m -4.89747,-14.96203 c 1.25604,-0.33444 2.16379,-1.602 2.04704,-2.8584 -0.0889,-0.95618 -0.61837,-1.77927 -1.4192,-2.2061 -0.44699,-0.23823 -0.82014,-0.33433 -1.30123,-0.33516 -0.78299,0 -1.38925,0.25473 -1.96185,0.8285 -0.77263,0.77417 -1.01066,1.83487 -0.64059,2.85442 0.39672,1.09293 1.38796,1.78959 2.54931,1.79159 0.24344,4.7e-4 0.57036,-0.0332 0.72652,-0.0749 z m 46.19992,-0.0631 c 0.72303,-0.24273 1.27023,-0.71885 1.59727,-1.38989 0.51926,-1.06535 0.31526,-2.27145 -0.52793,-3.12118 -0.61047,-0.61522 -1.27388,-0.86463 -2.15869,-0.81153 -2.33697,0.14015 -3.38829,3.04397 -1.6995,4.69404 0.32596,0.31852 0.84418,0.61533 1.23392,0.70673 0.4466,0.10464 1.10931,0.0713 1.55493,-0.0782 z m -22.87884,-5.0962 c 1.43414,-0.44637 2.41943,-1.98203 2.21339,-3.44982 -0.0373,-0.26617 -0.42495,-1.52255 -1.08115,-3.50464 l -1.02291,-3.08964 0.17612,-0.18042 0.17611,-0.18046 0.63624,0.33549 c 0.34992,0.1845 1.12172,0.59032 1.71508,0.90174 l 1.07885,0.56626 0.0149,-1.26546 c 0.008,-0.696 0.008,-1.8482 0,-2.56046 l -0.0149,-1.29495 -1.71174,0.54042 -1.71174,0.54035 -0.17659,-0.17592 -0.17661,-0.17593 0.68502,-2.15366 c 0.37676,-1.18452 0.685,-2.17418 0.685,-2.19919 0,-0.0249 -1.12916,-0.0454 -2.50924,-0.0454 l -2.50925,0 0.68159,2.14386 c 0.37487,1.17915 0.68173,2.16876 0.68189,2.19918 1.8e-4,0.0305 -0.0721,0.13473 -0.16021,0.23172 l -0.1605,0.17637 -1.56679,-0.49505 c -0.86174,-0.27227 -1.63526,-0.5184 -1.71895,-0.54694 l -0.15213,-0.0521 0,2.57286 0,2.5728 0.51174,-0.27198 c 0.28147,-0.1496 0.83542,-0.44238 1.23101,-0.65068 0.39557,-0.20831 0.94047,-0.4955 1.21089,-0.63824 l 0.49167,-0.25953 0.18201,0.18203 0.18202,0.182 -1.01967,3.0626 c -0.56083,1.6845 -1.04762,3.22156 -1.08177,3.4158 -0.14323,0.81488 0.11174,1.81102 0.63174,2.46845 0.87368,1.10452 2.23285,1.52051 3.58888,1.09848 z M 344.12162,550.268 c 1.0484,-0.28953 1.76942,-1.05261 1.99133,-2.10762 0.1011,-0.48084 0.10162,-0.62441 0.003,-1.08848 -0.10991,-0.51856 -0.33812,-0.95441 -0.70649,-1.34916 -1.07498,-1.15198 -2.90646,-1.13948 -3.98666,0.0271 -0.36131,0.39027 -0.5666,0.79685 -0.69043,1.36754 -0.29474,1.35813 0.65154,2.84715 2.01247,3.16664 0.33027,0.0775 1.06867,0.0688 1.37658,-0.016 z m 42.3516,0.0177 c 0.74562,-0.17173 1.44668,-0.73594 1.79128,-1.44161 0.53597,-1.09755 0.33981,-2.28992 -0.51767,-3.14642 -0.19839,-0.19822 -0.48709,-0.42766 -0.64151,-0.50993 -0.78777,-0.4197 -1.764,-0.42258 -2.58291,-0.007 -0.39839,0.20189 -0.98092,0.80012 -1.16934,1.20084 -0.1628,0.34622 -0.30749,0.93561 -0.30905,1.25881 -10e-4,0.29734 0.19783,1.01756 0.36806,1.33031 0.30412,0.55878 1.10162,1.17075 1.71273,1.31427 0.29662,0.0697 1.04864,0.0704 1.34841,0 z m -29.1485,-1.47967 c 1.6889,-0.46834 2.48259,-2.35134 1.66861,-3.95872 -0.28577,-0.56436 -0.90719,-1.08469 -1.55664,-1.30345 -0.4205,-0.1417 -1.17964,-0.15392 -1.61753,-0.026 -0.60035,0.17528 -1.1492,0.57228 -1.49493,1.08146 -0.74166,1.09211 -0.623,2.55508 0.28247,3.48278 0.68825,0.70518 1.75819,0.99016 2.71802,0.72405 z m 15.93685,0.0398 c 1.73042,-0.36292 2.64777,-2.32858 1.8386,-3.9396 -0.71072,-1.415 -2.57932,-1.92398 -3.91845,-1.06733 -0.79584,0.50911 -1.25078,1.36931 -1.25078,2.36506 0,1.73593 1.59985,3.00493 3.33063,2.64187 z m -22.85645,-2.23375 c 0.95207,-0.27075 1.72526,-1.09927 1.92653,-2.0643 0.41297,-1.98042 -1.40665,-3.74929 -3.33909,-3.24595 -0.67728,0.17645 -1.38514,0.69584 -1.70934,1.25429 -0.50947,0.87762 -0.49479,2.06541 0.0359,2.9037 0.63588,1.00442 1.91999,1.48395 3.08599,1.15226 z m 30.03764,-0.0328 c 0.81881,-0.24354 1.49866,-0.92083 1.76938,-1.76277 0.17475,-0.54347 0.14301,-1.36024 -0.0732,-1.88429 -0.5079,-1.23105 -1.92685,-1.96121 -3.1837,-1.63828 -2.09057,0.5371 -2.80985,3.07105 -1.30686,4.60395 0.73315,0.74773 1.74318,0.99404 2.79439,0.68139 z"
       id="path3050"
       inkscape:connector-curvature="0"
       sodipodi:nodetypes="csccsccscsccccsccccscccccccccccccscccscccccsscccccccsccccccsccccccssccsccssscsccscccccccccsccccssscsccccccsccccccsccsccccssscccsccccccsccccssccscccccccccccccssscssccccccccsscccccccccsccccccccscccsccscccccccccccsssccscsscccscccc" />
    <path
       inkscape:connector-curvature="0"
       id="path3885"
       d="m 514.88185,571.16593 c 0.78326,-0.156 1.8198,-1.1002 2.19466,-1.9974 0.63756,-1.526 0.20228,-3.0928 -1.16196,-4.1828 -0.96592,-0.7718 -2.6674,-0.9486 -3.7327,-0.3878 -2.9569,1.5564 -2.47984,5.8938 0.7304,6.6408 0.41546,0.096 0.89038,0.148 1.05538,0.112 0.165,-0.034 0.5764,-0.118 0.91422,-0.186 z m -83.31422,-0.632 c 2.0194,-0.3468 3.10556,-0.6482 5.45,-1.5128 l 1.75,-0.6454 0,-6.9584 0,-6.9584 -5.5,0 -5.5,0 0,2.1 0,2.1 3.1,0 3.1,0 0,3.3728 0,3.3726 -1.95,0.5674 c -2.29042,0.6664 -6.05212,0.8942 -8.12432,0.4916 -5.94052,-1.1538 -9.92568,-6.0818 -9.92568,-12.2736 0,-5.0294 2.65186,-9.2206 7.14454,-11.2914 4.26786,-1.967 9.73352,-1.5076 15.30546,1.287 l 1.75,0.8776 0,-2.4576 0,-2.4576 -1.65,-0.6414 c -3.9456,-1.5332 -6.42018,-2.0474 -9.8541,-2.0474 -5.31206,0 -9.2869,1.5572 -12.71624,4.982 -3.5301,3.5254 -5.18598,7.8348 -4.91958,12.8032 0.1364,2.5428 0.53136,4.1662 1.54774,6.3606 3.35362,7.2408 11.25506,10.6018 20.99218,8.9292 z m 31.78378,0.317 c 6.3801,-0.6546 11.43806,-3.9372 14.00964,-9.092 1.2738,-2.5534 1.6598,-4.3124 1.6677,-7.6 0.006,-2.4876 -0.0542,-3.0008 -0.53898,-4.6 -1.7856,-5.8898 -5.95118,-9.899 -12.00904,-11.5582 -1.36976,-0.3752 -2.126,-0.4418 -5.0131,-0.4418 -2.93234,0 -3.633,0.064 -5.094,0.4628 -5.28016,1.4424 -9.12258,4.8558 -11.17388,9.926 -1.4705,3.6348 -1.59564,7.9964 -0.33568,11.7008 0.91792,2.6988 1.84256,4.1634 3.9982,6.3334 1.81004,1.8222 2.21802,2.124 4.1075,3.0392 2.26982,1.0992 3.78238,1.5538 6.04724,1.8172 2.07646,0.2416 2.10374,0.2416 4.3344,0.02 z m -5.0005,-4.685 c -4.26314,-1.079 -7.51668,-4.014 -8.80322,-7.9414 -0.40974,-1.251 -0.4788,-1.8464 -0.47146,-4.0656 0.008,-2.4158 0.0528,-2.7162 0.63202,-4.239 1.20268,-3.162 3.05172,-5.2432 5.92164,-6.6654 3.68374,-1.8252 8.09654,-1.8234 11.9098,0 2.93478,1.4074 5.21216,4.1564 6.16308,7.4396 1.09804,3.791 0.1832,8.3814 -2.28924,11.4854 -1.10822,1.3916 -3.46852,2.9338 -5.503,3.596 -2.02476,0.659 -5.73164,0.848 -7.55962,0.3852 z m 82.1746,4.6786 c 2.19926,-0.2426 4.30784,-0.8844 5.99342,-1.824 1.7,-0.9478 3.84934,-3.182 4.60048,-4.7822 1.19434,-2.5442 1.24822,-3.2078 1.24822,-15.371 l 0,-11.0084 -2.3,0 -2.3,0 -0.004,9.75 c -0.004,10.3786 -0.1456,12.8926 -0.8157,14.4502 -0.47762,1.1102 -2.2678,2.93 -3.50176,3.5594 -1.31752,0.6722 -3.11524,1.0404 -5.07914,1.0404 -3.26848,0 -5.5277,-0.8894 -7.36484,-2.8996 -1.78856,-1.957 -1.7199,-1.4024 -1.78952,-14.4504 l -0.061,-11.45 -2.40136,0 -2.40136,0 0.0662,11.55 c 0.0726,12.682 0.0568,12.5028 1.34648,15.1546 1.80384,3.709 6.43134,6.1304 12.36336,6.4692 0.25184,0.02 1.33184,-0.07 2.4,-0.188 z m -40.91244,-10.6856 c 2.40022,-5.72 5.36428,-12.785 6.58682,-15.7 1.22254,-2.915 2.34662,-5.5926 2.49796,-5.95 l 0.27514,-0.65 -2.3817,0 -2.3817,0 -2.14846,5.05 c -1.18166,2.7776 -3.21734,7.57 -4.52376,10.65 -1.30642,3.08 -2.51782,5.914 -2.692,6.2976 l -0.31668,0.6976 -0.2538,-0.4976 c -0.1396,-0.2736 -2.304,-5.3126 -4.8098,-11.1976 -2.50582,-5.885 -4.61784,-10.7704 -4.69338,-10.8566 -0.0756,-0.086 -1.1826,-0.132 -2.46014,-0.1 l -2.32278,0.056 0.86782,2 c 0.47732,1.1 3.52384,8.21 6.77004,15.8 3.2462,7.59 6.0174,14.052 6.15822,14.36 0.21006,0.4594 0.36448,0.5492 0.8601,0.5 0.59904,-0.06 0.64042,-0.146 4.9681,-10.46 z m 63.40226,2.4066 0.0522,-7.8934 2.30334,2.2434 c 1.26684,1.2338 3.69684,3.5866 5.4,5.2284 1.70314,1.6418 4.31852,4.1842 5.81192,5.65 l 2.71528,2.665 3.28472,-0.002 3.28472,-0.002 -3.5,-3.4586 c -1.925,-1.9022 -5.87796,-5.761 -8.78434,-8.575 l -5.2843,-5.1164 3.10598,-3.3736 c 1.70828,-1.8552 4.88586,-5.3084 7.06128,-7.6734 l 3.95528,-4.3 -2.97694,-0.058 -2.97696,-0.058 -0.4758,0.5576 c -0.2617,0.3066 -1.0267,1.1452 -1.7,1.8634 -0.67332,0.7182 -3.15918,3.416 -5.52418,5.9948 -2.365,2.579 -4.63524,5.0514 -5.045,5.4942 l -0.745,0.805 -0.006,-7.35 -0.004,-7.35 -2.5,0 -2.5,0 0,16.3 0,16.3 2.4977,0 2.49772,0 0.0522,-7.8932 z"
       style="fill:#ffffff;fill-opacity:1;display:inline"
       sodipodi:nodetypes="cccccccccccccccccccccccsccccccssccccssccsccscccccccssccccccccccsccccscssscccssccccsccccsscccsccccscccccccsccccssccscccccccccccccccccc" />
  </g>
</svg>
